<?xml version="1.0" encoding="UTF-8" standalone="no"?>
<!DOCTYPE svg PUBLIC "-//W3C//DTD SVG 1.1//EN" "http://www.w3.org/Graphics/SVG/1.1/DTD/svg11.dtd">
<!-- 由 Microsoft Visio, SVG Export 生成 Boost.svg 页-1 -->
<svg xmlns="http://www.w3.org/2000/svg" xmlns:xlink="http://www.w3.org/1999/xlink" xmlns:ev="http://www.w3.org/2001/xml-events"
		xmlns:v="http://schemas.microsoft.com/visio/2003/SVGExtensions/" width="2.93466in" height="1.51932in"
		viewBox="0 0 211.296 109.391" xml:space="preserve" color-interpolation-filters="sRGB" class="st32">
	<v:documentProperties v:langID="2052" v:metric="true" v:viewMarkup="false"/>

	<style type="text/css">
	<![CDATA[
		.st1 {stroke:#000000;stroke-linecap:round;stroke-linejoin:round;stroke-width:0.75}
		.st2 {fill:#ffffff;stroke:#000000;stroke-linecap:round;stroke-linejoin:round;stroke-width:0.75}
		.st3 {stroke:#000000;stroke-linecap:butt;stroke-width:0.75}
		.st4 {fill:#000000;stroke:#000000;stroke-linecap:round;stroke-linejoin:round;stroke-width:0.24}
		.st5 {fill:none;stroke:none;stroke-linecap:round;stroke-linejoin:round;stroke-width:0.75}
		.st6 {fill:#000000;font-family:Times New Roman;font-size:0.499992em;font-style:italic;font-weight:bold}
		.st7 {baseline-shift:-32.4949%;font-size:0.649897em}
		.st8 {marker-end:url(#mrkr5-66);stroke:#000000;stroke-linecap:round;stroke-linejoin:round;stroke-width:0.24}
		.st9 {fill:#000000;fill-opacity:1;stroke:#000000;stroke-opacity:1;stroke-width:0.11764705882353}
		.st10 {fill:none;stroke:#000000;stroke-linecap:round;stroke-linejoin:round;stroke-width:0.24}
		.st11 {stroke:#000000;stroke-dasharray:1.68,1.2;stroke-linecap:round;stroke-linejoin:round;stroke-width:0.24}
		.st12 {fill:none;stroke:#000000;stroke-linecap:round;stroke-linejoin:round;stroke-width:0.75}
		.st13 {marker-end:url(#mrkr5-120);stroke:#000000;stroke-linecap:round;stroke-linejoin:round;stroke-width:0.24}
		.st14 {fill:none;stroke:#ff0000;stroke-linecap:round;stroke-linejoin:round;stroke-width:0.75}
		.st15 {stroke:#ff0000;stroke-linecap:round;stroke-linejoin:round;stroke-width:1}
		.st16 {fill:none;stroke:#000000;stroke-dasharray:1.68,1.2;stroke-linecap:round;stroke-linejoin:round;stroke-width:0.24}
		.st17 {fill:#ffffff;stroke:none;stroke-linecap:round;stroke-linejoin:round;stroke-width:0.75}
		.st18 {fill:#000000;font-family:宋体;font-size:0.499992em;font-weight:bold}
		.st19 {font-family:Times New Roman;font-size:1em}
		.st20 {stroke:#000000;stroke-linecap:round;stroke-linejoin:round;stroke-width:0.5}
		.st21 {stroke:#000000;stroke-linecap:butt;stroke-width:1.2}
		.st22 {marker-end:url(#mrkr4-256);stroke:#000000;stroke-linecap:round;stroke-linejoin:round;stroke-width:0.75}
		.st23 {fill:#000000;fill-opacity:1;stroke:#000000;stroke-opacity:1;stroke-width:0.34246575342466}
		.st24 {stroke:#000000;stroke-linecap:round;stroke-linejoin:round;stroke-width:0.72}
		.st25 {fill:none;stroke:#000000;stroke-linecap:round;stroke-linejoin:round;stroke-width:0.72}
		.st26 {font-size:1em}
		.st27 {stroke:#000000;stroke-dasharray:0.75,1.5;stroke-linecap:round;stroke-linejoin:round;stroke-width:0.75}
		.st28 {stroke:#ff0000;stroke-linecap:round;stroke-linejoin:round;stroke-width:0.75}
		.st29 {marker-end:url(#mrkr5-372);marker-start:url(#mrkr5-370);stroke:#000000;stroke-linecap:round;stroke-linejoin:round;stroke-width:0.75}
		.st30 {marker-start:url(#mrkr5-370);stroke:#000000;stroke-linecap:round;stroke-linejoin:round;stroke-width:0.75}
		.st31 {fill:#ff0000;font-family:Times New Roman;font-size:0.499992em;font-style:italic;font-weight:bold}
		.st32 {fill:none;fill-rule:evenodd;font-size:12px;overflow:visible;stroke-linecap:square;stroke-miterlimit:3}
	]]>
	</style>

	<defs id="Markers">
		<g id="lend5">
			<path d="M 2 1 L 0 0 L 1.98117 -0.993387 C 1.67173 -0.364515 1.67301 0.372641 1.98465 1.00043 " style="stroke:none"/>
		</g>
		<marker id="mrkr5-66" class="st9" v:arrowType="5" v:arrowSize="1" v:setback="0" refX="-0" orient="auto"
				markerUnits="strokeWidth" overflow="visible">
			<use xlink:href="#lend5" transform="scale(-8.5000000000001,-8.5000000000001) "/>
		</marker>
		<marker id="mrkr5-120" class="st9" v:arrowType="5" v:arrowSize="1" v:setback="14.875" refX="-14.875" orient="auto"
				markerUnits="strokeWidth" overflow="visible">
			<use xlink:href="#lend5" transform="scale(-8.5000000000001,-8.5000000000001) "/>
		</marker>
		<g id="lend4">
			<path d="M 2 1 L 0 0 L 2 -1 L 2 1 " style="stroke:none"/>
		</g>
		<marker id="mrkr4-256" class="st23" v:arrowType="4" v:arrowSize="0" v:setback="5.84" refX="-5.84" orient="auto"
				markerUnits="strokeWidth" overflow="visible">
			<use xlink:href="#lend4" transform="scale(-2.92,-2.92) "/>
		</marker>
		<marker id="mrkr5-370" class="st23" v:arrowType="5" v:arrowSize="0" v:setback="4.63" refX="4.63" orient="auto"
				markerUnits="strokeWidth" overflow="visible">
			<use xlink:href="#lend5" transform="scale(2.92) "/>
		</marker>
		<marker id="mrkr5-372" class="st23" v:arrowType="5" v:arrowSize="0" v:setback="5.11" refX="-5.11" orient="auto"
				markerUnits="strokeWidth" overflow="visible">
			<use xlink:href="#lend5" transform="scale(-2.92,-2.92) "/>
		</marker>
	</defs>
	<g v:mID="0" v:index="1" v:groupContext="foregroundPage">
		<title>页-1</title>
		<v:pageProperties v:drawingScale="0.0393701" v:pageScale="0.0393701" v:drawingUnits="24" v:shadowOffsetX="8.50394"
				v:shadowOffsetY="-8.50394"/>
		<v:layer v:name="连接线" v:index="0"/>
		<g id="group224-1" transform="translate(18.0604,-39.5676)" v:mID="224" v:groupContext="group">
			<title>Inductor2.224</title>
			<g id="shape225-2" v:mID="225" v:groupContext="shape" transform="translate(13.8331,215.325) rotate(180)">
				<title>工作表.225</title>
				<path d="M0 105.93 A3.45827 3.45827 -47.9 1 0 6.92 105.93" class="st1"/>
			</g>
			<g id="shape226-5" v:mID="226" v:groupContext="shape">
				<title>工作表.226</title>
				<path d="M0 109.39 L6.92 109.39" class="st1"/>
			</g>
			<g id="shape227-8" v:mID="227" v:groupContext="shape" transform="translate(20.7496,215.325) rotate(180)">
				<title>工作表.227</title>
				<path d="M0 105.93 A3.45827 3.45827 -22.75 1 0 6.92 105.93" class="st1"/>
			</g>
			<g id="shape228-11" v:mID="228" v:groupContext="shape" transform="translate(27.6661,215.325) rotate(180)">
				<title>工作表.228</title>
				<path d="M-0 105.93 A3.45827 3.45827 -81.68 1 0 6.92 105.93" class="st1"/>
			</g>
			<g id="shape229-14" v:mID="229" v:groupContext="shape" transform="translate(27.6661,-3.97904E-13)">
				<title>工作表.229</title>
				<path d="M0 109.39 L6.92 109.39" class="st1"/>
			</g>
		</g>
		<g id="shape230-17" v:mID="230" v:groupContext="shape" transform="translate(14.3753,-38.6463)">
			<title>工作表.230</title>
			<ellipse cx="0.992126" cy="108.399" rx="0.992126" ry="0.992126" class="st2"/>
		</g>
		<g id="shape231-19" v:mID="231" v:groupContext="shape" v:layerMember="0" transform="translate(47.4462,-32.4809)">
			<title>动态连接线.231</title>
			<path d="M5.2 102.3 L8.98 102.3" class="st3"/>
		</g>
		<g id="shape232-22" v:mID="232" v:groupContext="shape" v:layerMember="0" transform="translate(27.4147,-32.5105)">
			<title>动态连接线.232</title>
			<path d="M-3.12 102.33 L-11.06 102.28" class="st3"/>
		</g>
		<g id="shape233-25" v:mID="233" v:groupContext="shape" transform="translate(14.3753,-7.81952)">
			<title>工作表.233</title>
			<ellipse cx="0.992126" cy="108.399" rx="0.992126" ry="0.992126" class="st2"/>
		</g>
		<g id="shape234-27" v:mID="234" v:groupContext="shape" v:layerMember="0" transform="translate(16.3595,-1.71339)">
			<title>动态连接线.234</title>
			<path d="M0 102.3 L40.06 102.3" class="st3"/>
		</g>
		<g id="shape235-30" v:mID="235" v:groupContext="shape" transform="translate(123.993,-7.81952)">
			<title>工作表.235</title>
			<ellipse cx="0.992126" cy="108.399" rx="0.992126" ry="0.992126" class="st2"/>
		</g>
		<g id="shape236-32" v:mID="236" v:groupContext="shape" transform="translate(123.993,-38.6345)">
			<title>工作表.236</title>
			<ellipse cx="0.992126" cy="108.399" rx="0.992126" ry="0.992126" class="st2"/>
		</g>
		<g id="shape237-34" v:mID="237" v:groupContext="shape" v:layerMember="0" transform="translate(75.6037,-32.4809)">
			<title>动态连接线.237</title>
			<path d="M0 102.3 L-16.35 102.3" class="st3"/>
		</g>
		<g id="shape238-37" v:mID="238" v:groupContext="shape" transform="translate(56.4225,-38.1502)">
			<title>自动联接.238</title>
			<v:userDefs>
				<v:ud v:nameU="visVersion" v:val="VT0(15):26"/>
				<v:ud v:nameU="visDisableIncLayout" v:prompt="" v:val="VT0(1):26"/>
				<v:ud v:nameU="visIsJunction" v:prompt="" v:val="VT0(1):26"/>
			</v:userDefs>
			<path d="M0 107.97 A1.41732 1.41732 0 0 1 2.83 107.97 A1.41732 1.41732 0 1 1 0 107.97 Z" class="st4"/>
		</g>
		<g id="shape239-39" v:mID="239" v:groupContext="shape" v:layerMember="0" transform="translate(50.7769,-31.2704)">
			<title>动态连接线.239</title>
			<path d="M7.06 102.51 L7.11 102.1" class="st3"/>
		</g>
		<g id="shape240-42" v:mID="240" v:groupContext="shape" v:layerMember="0" transform="translate(123.994,-46.6628)">
			<title>动态连接线.240</title>
			<path d="M0 116.47 L-16.36 116.49" class="st3"/>
		</g>
		<g id="shape241-45" v:mID="241" v:groupContext="shape" v:layerMember="0" transform="translate(123.994,-1.69828)">
			<title>动态连接线.241</title>
			<path d="M0 102.32 L-16.44 102.29" class="st3"/>
		</g>
		<g id="shape242-48" v:mID="242" v:groupContext="shape" transform="translate(56.4226,-7.38268)">
			<title>自动联接.242</title>
			<v:userDefs>
				<v:ud v:nameU="visVersion" v:val="VT0(15):26"/>
				<v:ud v:nameU="visDisableIncLayout" v:prompt="" v:val="VT0(1):26"/>
				<v:ud v:nameU="visIsJunction" v:prompt="" v:val="VT0(1):26"/>
			</v:userDefs>
			<path d="M0 107.97 A1.41732 1.41732 0 0 1 2.83 107.97 A1.41732 1.41732 0 1 1 0 107.97 Z" class="st4"/>
		</g>
		<g id="shape243-50" v:mID="243" v:groupContext="shape" v:layerMember="0" transform="translate(50.7533,-5.04991)">
			<title>动态连接线.243</title>
			<path d="M7.09 104.22 L7.09 100.39" class="st3"/>
		</g>
		<g id="shape244-53" v:mID="244" v:groupContext="shape" transform="translate(10.832,-20.6857)">
			<title>工作表.244</title>
			<desc>V</desc>
			<v:textBlock v:margins="rect(0,0,0,0)" v:tabSpace="42.5197" v:verticalAlign="0"/>
			<v:textRect cx="3.54331" cy="106.1" width="7.09" height="6.58268"/>
			<rect x="0" y="102.809" width="7.08661" height="6.58268" class="st5"/>
			<text x="1.54" y="108.21" class="st6" v:langID="2052"><v:paragraph v:horizAlign="1"/><v:tabList/>V</text>		</g>
		<g id="shape245-56" v:mID="245" v:groupContext="shape" transform="translate(118.265,-20.9337)">
			<title>工作表.245</title>
			<desc>Vout</desc>
			<v:textBlock v:margins="rect(0,0,0,0)" v:tabSpace="42.5197" v:verticalAlign="0"/>
			<v:textRect cx="4.53543" cy="106.1" width="9.08" height="6.58268"/>
			<rect x="0" y="102.809" width="9.07086" height="6.58268" class="st5"/>
			<text x="0.48" y="108.21" class="st6" v:langID="2052"><v:paragraph v:horizAlign="1"/><v:tabList/>V<tspan dy="-0.279em"
						class="st7" v:baseFontSize="6">ou</tspan><tspan x="3.99" dy="1.847em" class="st7" v:baseFontSize="6">t</tspan></text>		</g>
		<g id="shape246-61" v:mID="246" v:groupContext="shape" transform="translate(113.575,-39.5672) rotate(0.156412)">
			<title>工作表.246</title>
			<path d="M0 109.39 L3.53 109.39" class="st8"/>
		</g>
		<g id="shape247-67" v:mID="247" v:groupContext="shape" transform="translate(11.8242,-32.9849)">
			<title>工作表.247</title>
			<desc>+</desc>
			<v:textBlock v:margins="rect(0,0,0,0)" v:tabSpace="42.5197" v:verticalAlign="0"/>
			<v:textRect cx="3.54331" cy="106.1" width="7.09" height="6.58268"/>
			<rect x="0" y="102.809" width="7.08661" height="6.58268" class="st5"/>
			<text x="1.83" y="108.21" class="st6" v:langID="2052"><v:paragraph v:horizAlign="1"/><v:tabList/>+</text>		</g>
		<g id="shape248-70" v:mID="248" v:groupContext="shape" transform="translate(11.8242,-11.2211)">
			<title>工作表.248</title>
			<desc>-</desc>
			<v:textBlock v:margins="rect(0,0,0,0)" v:tabSpace="42.5197" v:verticalAlign="0"/>
			<v:textRect cx="3.54331" cy="106.1" width="7.09" height="6.58268"/>
			<rect x="0" y="102.809" width="7.08661" height="6.58268" class="st5"/>
			<text x="2.54" y="108.21" class="st6" v:langID="2052"><v:paragraph v:horizAlign="1"/><v:tabList/>-</text>		</g>
		<g id="shape249-73" v:mID="249" v:groupContext="shape" transform="translate(120.958,-32.9849)">
			<title>工作表.249</title>
			<desc>+</desc>
			<v:textBlock v:margins="rect(0,0,0,0)" v:tabSpace="42.5197" v:verticalAlign="0"/>
			<v:textRect cx="3.54331" cy="106.1" width="7.09" height="6.58268"/>
			<rect x="0" y="102.809" width="7.08661" height="6.58268" class="st5"/>
			<text x="1.83" y="108.21" class="st6" v:langID="2052"><v:paragraph v:horizAlign="1"/><v:tabList/>+</text>		</g>
		<g id="shape250-76" v:mID="250" v:groupContext="shape" transform="translate(120.958,-11.2211)">
			<title>工作表.250</title>
			<desc>-</desc>
			<v:textBlock v:margins="rect(0,0,0,0)" v:tabSpace="42.5197" v:verticalAlign="0"/>
			<v:textRect cx="3.54331" cy="106.1" width="7.09" height="6.58268"/>
			<rect x="0" y="102.809" width="7.08661" height="6.58268" class="st5"/>
			<text x="2.54" y="108.21" class="st6" v:langID="2052"><v:paragraph v:horizAlign="1"/><v:tabList/>-</text>		</g>
		<g id="shape251-79" v:mID="251" v:groupContext="shape" transform="translate(111.745,-41.9455)">
			<title>工作表.251</title>
			<desc>ILoad</desc>
			<v:textBlock v:margins="rect(0,0,0,0)" v:tabSpace="42.5197" v:verticalAlign="0"/>
			<v:textRect cx="6.37795" cy="106.1" width="12.76" height="6.58268"/>
			<rect x="0" y="102.809" width="12.7559" height="6.58268" class="st5"/>
			<text x="1.09" y="108.21" class="st6" v:langID="2052"><v:paragraph v:horizAlign="1"/><v:tabList/>I<tspan dy="-0.279em"
						class="st7" v:baseFontSize="6">Load</tspan></text>		</g>
		<g id="shape252-83" v:mID="252" v:groupContext="shape" transform="translate(34.9265,-14.0557)">
			<title>工作表.252</title>
			<desc>fs</desc>
			<v:textBlock v:margins="rect(0,0,0,0)" v:tabSpace="42.5197" v:verticalAlign="0"/>
			<v:textRect cx="3.54331" cy="106.1" width="7.09" height="6.58268"/>
			<rect x="0" y="102.809" width="7.08661" height="6.58268" class="st5"/>
			<text x="1.79" y="108.21" class="st6" v:langID="2052"><v:paragraph v:horizAlign="1"/><v:tabList/>f<tspan dy="-0.279em"
						class="st7" v:baseFontSize="6">s</tspan></text>		</g>
		<g id="shape269-87" v:mID="269" v:groupContext="shape" transform="translate(43.0052,-13.9023)">
			<title>工作表.269</title>
			<rect x="0" y="88.415" width="20.5512" height="20.9764" class="st10"/>
		</g>
		<g id="shape270-89" v:mID="270" v:groupContext="shape" transform="translate(50.2701,-43.0179) rotate(25.5808)">
			<title>工作表.270</title>
			<path d="M0 109.39 L44.31 109.39" class="st11"/>
		</g>
		<g id="shape271-92" v:mID="271" v:groupContext="shape" transform="translate(-32.3534,21.9029) rotate(-61.2538)">
			<title>工作表.271</title>
			<path d="M0 109.39 L21.51 109.39" class="st11"/>
		</g>
		<g id="group370-95" transform="translate(186.344,-23.5046)" v:mID="370" v:groupContext="group">
			<title>DC source.370</title>
			<g id="shape371-96" v:mID="371" v:groupContext="shape">
				<title>工作表.371</title>
				<ellipse cx="4.72441" cy="104.667" rx="4.72441" ry="4.72441" class="st12"/>
			</g>
			<g id="shape372-98" v:mID="372" v:groupContext="shape" transform="translate(0.759152,-4.71062)">
				<title>工作表.372</title>
				<path d="M0 109.39 L7.88 109.39" class="st1"/>
			</g>
		</g>
		<g id="shape275-101" v:mID="275" v:groupContext="shape" transform="translate(165.403,-42.0479)">
			<title>工作表.275</title>
			<ellipse cx="0.992126" cy="108.399" rx="0.992126" ry="0.992126" class="st2"/>
		</g>
		<g id="shape276-103" v:mID="276" v:groupContext="shape" transform="translate(165.403,-11.2211)">
			<title>工作表.276</title>
			<ellipse cx="0.992126" cy="108.399" rx="0.992126" ry="0.992126" class="st2"/>
		</g>
		<g id="shape277-105" v:mID="277" v:groupContext="shape" v:layerMember="0" transform="translate(190.937,-30.9033)">
			<title>动态连接线.277</title>
			<path d="M0 107.34 L0 97.27 L-23.55 97.27" class="st3"/>
		</g>
		<g id="shape278-108" v:mID="278" v:groupContext="shape" v:layerMember="0" transform="translate(191.056,-24.9397)">
			<title>动态连接线.278</title>
			<path d="M0 110.83 L0 122.13 L-23.67 122.13" class="st3"/>
		</g>
		<g id="shape279-111" v:mID="279" v:groupContext="shape" transform="translate(199.59,-26.7576)">
			<title>工作表.279</title>
			<desc>IL</desc>
			<v:textBlock v:margins="rect(0,0,0,0)" v:tabSpace="42.5197" v:verticalAlign="0"/>
			<v:textRect cx="3.54331" cy="106.293" width="7.09" height="6.1958"/>
			<rect x="0" y="103.196" width="7.08661" height="6.1958" class="st5"/>
			<text x="1.18" y="108.6" class="st6" v:langID="2052"><v:paragraph v:horizAlign="1"/><v:tabList/>I<tspan dy="-0.279em"
						class="st7" v:baseFontSize="6">L</tspan></text>		</g>
		<g id="shape280-115" v:mID="280" v:groupContext="shape" transform="translate(24.2966,179.215) rotate(180)">
			<title>工作表.280</title>
			<path d="M0 109.39 L1.82 109.39" class="st13"/>
		</g>
		<g id="shape281-121" v:mID="281" v:groupContext="shape" transform="translate(17.21,-28.229)">
			<title>工作表.281</title>
			<desc>IL</desc>
			<v:textBlock v:margins="rect(0,0,0,0)" v:tabSpace="42.5197" v:verticalAlign="0"/>
			<v:textRect cx="3.54331" cy="106.1" width="7.09" height="6.58268"/>
			<rect x="0" y="102.809" width="7.08661" height="6.58268" class="st5"/>
			<text x="1.18" y="108.21" class="st6" v:langID="2052"><v:paragraph v:horizAlign="1"/><v:tabList/>I<tspan dy="-0.279em"
						class="st7" v:baseFontSize="6">L</tspan></text>		</g>
		<g id="shape288-125" v:mID="288" v:groupContext="shape" transform="translate(98.706,-91.9423)">
			<title>工作表.288</title>
			<ellipse cx="0.992126" cy="108.399" rx="0.992126" ry="0.992126" class="st2"/>
		</g>
		<g id="shape290-127" v:mID="290" v:groupContext="shape" v:layerMember="0" transform="translate(137.205,-100.024)">
			<title>动态连接线.290</title>
			<path d="M-5.19 116.45 L-8.98 116.51" class="st3"/>
		</g>
		<g id="shape291-130" v:mID="291" v:groupContext="shape" transform="translate(98.706,-61.2211)">
			<title>工作表.291</title>
			<ellipse cx="0.992126" cy="108.399" rx="0.992126" ry="0.992126" class="st2"/>
		</g>
		<g id="shape292-132" v:mID="292" v:groupContext="shape" v:layerMember="0" transform="translate(100.69,-55.115)">
			<title>动态连接线.292</title>
			<path d="M0 102.3 L43.12 102.3" class="st3"/>
		</g>
		<g id="shape293-135" v:mID="293" v:groupContext="shape" transform="translate(194.576,-61.2211)">
			<title>工作表.293</title>
			<ellipse cx="0.992126" cy="108.399" rx="0.992126" ry="0.992126" class="st2"/>
		</g>
		<g id="shape294-137" v:mID="294" v:groupContext="shape" transform="translate(194.576,-92.036)">
			<title>工作表.294</title>
			<ellipse cx="0.992126" cy="108.399" rx="0.992126" ry="0.992126" class="st2"/>
		</g>
		<g id="shape295-139" v:mID="295" v:groupContext="shape" v:layerMember="0" transform="translate(157.005,-85.8825)">
			<title>动态连接线.295</title>
			<path d="M-3.59 102.3 L-10.58 102.3" class="st3"/>
		</g>
		<g id="shape296-142" v:mID="296" v:groupContext="shape" transform="translate(143.588,-91.5518)">
			<title>自动联接.296</title>
			<v:userDefs>
				<v:ud v:nameU="visVersion" v:val="VT0(15):26"/>
				<v:ud v:nameU="visDisableIncLayout" v:prompt="" v:val="VT0(1):26"/>
				<v:ud v:nameU="visIsJunction" v:prompt="" v:val="VT0(1):26"/>
			</v:userDefs>
			<path d="M0 107.97 A1.41732 1.41732 0 0 1 2.83 107.97 A1.41732 1.41732 0 1 1 0 107.97 Z" class="st4"/>
		</g>
		<g id="shape297-144" v:mID="297" v:groupContext="shape" v:layerMember="0" transform="translate(152.062,-95.5571)">
			<title>动态连接线.297</title>
			<path d="M-7.06 113.4 L-7.12 119.56" class="st3"/>
		</g>
		<g id="shape298-147" v:mID="298" v:groupContext="shape" v:layerMember="0" transform="translate(198.374,-100.064)">
			<title>动态连接线.298</title>
			<path d="M-3.8 116.47 L-10.38 116.49" class="st3"/>
		</g>
		<g id="shape299-150" v:mID="299" v:groupContext="shape" v:layerMember="0" transform="translate(194.577,-55.0998)">
			<title>动态连接线.299</title>
			<path d="M0 102.32 L-37.9 102.29" class="st3"/>
		</g>
		<g id="shape300-153" v:mID="300" v:groupContext="shape" transform="translate(143.812,-60.7842)">
			<title>自动联接.300</title>
			<v:userDefs>
				<v:ud v:nameU="visVersion" v:val="VT0(15):26"/>
				<v:ud v:nameU="visDisableIncLayout" v:prompt="" v:val="VT0(1):26"/>
				<v:ud v:nameU="visIsJunction" v:prompt="" v:val="VT0(1):26"/>
			</v:userDefs>
			<path d="M0 107.97 A1.41732 1.41732 0 0 1 2.83 107.97 A1.41732 1.41732 0 1 1 0 107.97 Z" class="st4"/>
		</g>
		<g id="shape301-155" v:mID="301" v:groupContext="shape" v:layerMember="0" transform="translate(152.292,-61.0408)">
			<title>动态连接线.301</title>
			<path d="M-7.06 106.81 L-7.11 97.8" class="st3"/>
		</g>
		<g id="group302-158" transform="translate(138.637,-72.6337)" v:mID="302" v:groupContext="group">
			<title>pluse source.302</title>
			<g id="group303-159" v:mID="303" v:groupContext="group">
				<title>AC source</title>
				<g id="shape304-160" v:mID="304" v:groupContext="shape">
					<title>工作表.304</title>
					<ellipse cx="6.37795" cy="103.013" rx="6.37795" ry="6.37795" class="st14"/>
				</g>
			</g>
			<g id="group305-162" transform="translate(2.83465,-4.33465)" v:mID="305" v:groupContext="group">
				<title>工作表.305</title>
				<g id="shape306-163" v:mID="306" v:groupContext="shape">
					<title>工作表.306</title>
					<path d="M0 109.39 L2.37 109.39" class="st15"/>
				</g>
				<g id="shape307-166" v:mID="307" v:groupContext="shape" transform="translate(2.37367,-8.52651E-14)">
					<title>工作表.307</title>
					<path d="M0 109.39 L0 104.37 L2.37 104.37 L2.37 109.39 L3.96 109.39 L4.71 109.39" class="st15"/>
				</g>
			</g>
		</g>
		<g id="shape308-169" v:mID="308" v:groupContext="shape" transform="translate(93.7454,-56.5754)">
			<title>工作表.308</title>
			<path d="M0 109.39 L116.22 109.39 L116.22 61.2 L0 61.2 L0 109.39 Z" class="st16"/>
		</g>
		<g id="shape309-171" v:mID="309" v:groupContext="shape" transform="translate(129.178,-102.434)">
			<title>工作表.309</title>
			<desc>共模EMI模型</desc>
			<v:textBlock v:margins="rect(0,0,0,0)" v:tabSpace="42.5197" v:verticalAlign="0"/>
			<v:textRect cx="24.7736" cy="106.1" width="49.55" height="6.58268"/>
			<rect x="0" y="102.809" width="49.5472" height="6.58268" class="st17"/>
			<text x="6.73" y="108.75" class="st18" v:langID="2052"><v:paragraph v:horizAlign="1"/><v:tabList/>共模<tspan class="st19">EMI</tspan>模型</text>		</g>
		<g id="shape310-175" v:mID="310" v:groupContext="shape" transform="translate(132.58,-7.81952)">
			<title>工作表.310</title>
			<path d="M0 109.39 L77.95 109.39 L77.95 69.14 L0 69.14 L0 109.39 Z" class="st16"/>
		</g>
		<g id="shape311-177" v:mID="311" v:groupContext="shape" transform="translate(157.129,-45.2368)">
			<title>工作表.311</title>
			<desc>差模EMI模型</desc>
			<v:textBlock v:margins="rect(0,0,0,0)" v:tabSpace="42.5197" v:verticalAlign="0"/>
			<v:textRect cx="24.7736" cy="106.1" width="49.55" height="6.58268"/>
			<rect x="0" y="102.809" width="49.5472" height="6.58268" class="st17"/>
			<text x="6.73" y="108.75" class="st18" v:langID="2052"><v:paragraph v:horizAlign="1"/><v:tabList/>差模<tspan class="st19">EMI</tspan>模型</text>		</g>
		<g id="group312-181" transform="translate(55.7901,39.6465) rotate(-90)" v:mID="312" v:groupContext="group">
			<title>CAP1.312</title>
			<g id="shape313-182" v:mID="313" v:groupContext="shape" transform="translate(0,-5.67637)">
				<title>工作表.313</title>
				<path d="M0 109.39 L5.1 109.39" class="st1"/>
			</g>
			<g id="shape314-185" v:mID="314" v:groupContext="shape" transform="translate(0,-3.76299)">
				<title>工作表.314</title>
				<path d="M0 109.39 L5.1 109.39" class="st1"/>
			</g>
			<g id="shape315-188" v:mID="315" v:groupContext="shape" transform="translate(111.943,99.952) rotate(90)">
				<title>工作表.315</title>
				<path d="M0 109.39 L3.44 109.39" class="st1"/>
			</g>
			<g id="shape316-191" v:mID="316" v:groupContext="shape" transform="translate(111.943,105.947) rotate(90)">
				<title>工作表.316</title>
				<path d="M0 109.39 L3.44 109.39" class="st1"/>
			</g>
		</g>
		<g id="group317-194" transform="translate(61.8219,39.6465) rotate(-90)" v:mID="317" v:groupContext="group">
			<title>Power Earth.317</title>
			<g id="shape318-195" v:mID="318" v:groupContext="shape" transform="translate(-106.84,106.581) rotate(-90)">
				<title>工作表.318</title>
				<path d="M0 109.39 L3.38 109.39" class="st20"/>
			</g>
			<g id="shape319-198" v:mID="319" v:groupContext="shape" transform="translate(0,-2.81085)">
				<title>工作表.319</title>
				<path d="M0 109.39 L5.1 109.39" class="st20"/>
			</g>
			<g id="shape320-201" v:mID="320" v:groupContext="shape" transform="translate(1.55905,-0.93695)">
				<title>工作表.320</title>
				<path d="M0 109.39 L1.98 109.39" class="st20"/>
			</g>
			<g id="shape321-204" v:mID="321" v:groupContext="shape" transform="translate(2.33858,0)">
				<title>工作表.321</title>
				<path d="M0 109.39 L0.43 109.39" class="st20"/>
			</g>
			<g id="shape322-207" v:mID="322" v:groupContext="shape" transform="translate(0.779527,-1.8739)">
				<title>工作表.322</title>
				<path d="M0 109.39 L3.54 109.39" class="st20"/>
			</g>
		</g>
		<g id="group326-210" transform="translate(130.879,-75.9502)" v:mID="326" v:groupContext="group">
			<title>CAP1.326</title>
			<g id="shape327-211" v:mID="327" v:groupContext="shape" transform="translate(0,-5.67637)">
				<title>工作表.327</title>
				<path d="M0 109.39 L5.1 109.39" class="st1"/>
			</g>
			<g id="shape328-214" v:mID="328" v:groupContext="shape" transform="translate(0,-3.76299)">
				<title>工作表.328</title>
				<path d="M0 109.39 L5.1 109.39" class="st1"/>
			</g>
			<g id="shape329-217" v:mID="329" v:groupContext="shape" transform="translate(111.943,99.952) rotate(90)">
				<title>工作表.329</title>
				<path d="M0 109.39 L3.44 109.39" class="st1"/>
			</g>
			<g id="shape330-220" v:mID="330" v:groupContext="shape" transform="translate(111.943,105.947) rotate(90)">
				<title>工作表.330</title>
				<path d="M0 109.39 L3.44 109.39" class="st1"/>
			</g>
		</g>
		<g id="group331-223" transform="translate(130.879,-69.9185)" v:mID="331" v:groupContext="group">
			<title>Power Earth.331</title>
			<g id="shape332-224" v:mID="332" v:groupContext="shape" transform="translate(-106.84,106.581) rotate(-90)">
				<title>工作表.332</title>
				<path d="M0 109.39 L3.38 109.39" class="st20"/>
			</g>
			<g id="shape333-227" v:mID="333" v:groupContext="shape" transform="translate(0,-2.81085)">
				<title>工作表.333</title>
				<path d="M0 109.39 L5.1 109.39" class="st20"/>
			</g>
			<g id="shape334-230" v:mID="334" v:groupContext="shape" transform="translate(1.55905,-0.93695)">
				<title>工作表.334</title>
				<path d="M0 109.39 L1.98 109.39" class="st20"/>
			</g>
			<g id="shape335-233" v:mID="335" v:groupContext="shape" transform="translate(2.33858,0)">
				<title>工作表.335</title>
				<path d="M0 109.39 L0.43 109.39" class="st20"/>
			</g>
			<g id="shape336-236" v:mID="336" v:groupContext="shape" transform="translate(0.779527,-1.8739)">
				<title>工作表.336</title>
				<path d="M0 109.39 L3.54 109.39" class="st20"/>
			</g>
		</g>
		<g id="shape337-239" v:mID="337" v:groupContext="shape" v:layerMember="0" transform="translate(140.517,-81.3841)">
			<title>动态连接线.337</title>
			<path d="M-7.09 105.39 L-7.09 99.22" class="st3"/>
		</g>
		<g id="shape338-242" v:mID="338" v:groupContext="shape" transform="translate(132.013,-91.5518)">
			<title>自动联接.338</title>
			<v:userDefs>
				<v:ud v:nameU="visVersion" v:val="VT0(15):26"/>
				<v:ud v:nameU="visDisableIncLayout" v:prompt="" v:val="VT0(1):26"/>
				<v:ud v:nameU="visIsJunction" v:prompt="" v:val="VT0(1):26"/>
			</v:userDefs>
			<path d="M0 107.97 A1.41732 1.41732 0 0 1 2.83 107.97 A1.41732 1.41732 0 1 1 0 107.97 Z" class="st4"/>
		</g>
		<g id="shape339-244" v:mID="339" v:groupContext="shape" v:layerMember="0" transform="translate(132.131,-85.8825)">
			<title>动态连接线.339</title>
			<path d="M2.72 102.3 L11.46 102.3" class="st3"/>
		</g>
		<g id="group340-247" transform="translate(43.7139,-10.2173)" v:mID="340" v:groupContext="group">
			<title>MOSFET1.209</title>
			<g id="shape341-248" v:mID="341" v:groupContext="shape" transform="translate(116.478,88.663) rotate(90)">
				<title>工作表.341</title>
				<path d="M0 109.39 L3.47 109.39" class="st21"/>
			</g>
			<g id="shape342-251" v:mID="342" v:groupContext="shape" transform="translate(14.1732,204.61) rotate(180)">
				<title>工作表.342</title>
				<path d="M0 109.39 L2.25 109.39" class="st22"/>
			</g>
			<g id="shape343-257" v:mID="343" v:groupContext="shape" transform="translate(113.643,90.9662) rotate(90)">
				<title>工作表.343</title>
				<path d="M0 109.39 L8.5 109.39" class="st1"/>
			</g>
			<g id="shape344-260" v:mID="344" v:groupContext="shape" transform="translate(0,-14.1732)">
				<title>工作表.344</title>
				<path d="M0 109.39 L4.25 109.39" class="st1"/>
			</g>
			<g id="shape345-263" v:mID="345" v:groupContext="shape" transform="translate(-95.2182,90.3993) rotate(-90)">
				<title>工作表.345</title>
				<path d="M0 109.39 L9.35 109.39" class="st1"/>
			</g>
			<g id="shape346-266" v:mID="346" v:groupContext="shape" transform="translate(-95.2182,109.391) rotate(-90)">
				<title>工作表.346</title>
				<path d="M0 109.39 L14.17 109.39" class="st1"/>
			</g>
			<g id="shape347-269" v:mID="347" v:groupContext="shape" transform="translate(14.1732,210.279) rotate(180)">
				<title>工作表.347</title>
				<path d="M0 109.39 L7.09 109.39" class="st1"/>
			</g>
			<g id="shape348-272" v:mID="348" v:groupContext="shape" transform="translate(14.1732,199.791) rotate(180)">
				<title>工作表.348</title>
				<path d="M0 109.39 L7.09 109.39" class="st1"/>
			</g>
			<g id="shape349-275" v:mID="349" v:groupContext="shape" transform="translate(116.478,93.4819) rotate(90)">
				<title>工作表.349</title>
				<path d="M0 109.39 L3.47 109.39" class="st21"/>
			</g>
			<g id="shape350-278" v:mID="350" v:groupContext="shape" transform="translate(116.478,99.1512) rotate(90)">
				<title>工作表.350</title>
				<path d="M0 109.39 L3.47 109.39" class="st21"/>
			</g>
		</g>
		<g id="group351-281" transform="translate(184.995,65.0994) rotate(90)" v:mID="351" v:groupContext="group">
			<title>DOIDE.351</title>
			<g id="shape352-282" v:mID="352" v:groupContext="shape" transform="translate(0,-13.4173)">
				<title>工作表.352</title>
				<path d="M0 109.39 L9.45 109.39" class="st24"/>
			</g>
			<g id="shape353-285" v:mID="353" v:groupContext="shape" transform="translate(1.9984E-15,-6.89469)">
				<title>工作表.353</title>
				<path d="M4.72 102.78 L0 109.39 L9.45 109.39 L4.72 102.78 Z" class="st25"/>
			</g>
			<g id="shape354-287" v:mID="354" v:groupContext="shape" transform="translate(114.116,88.415) rotate(90)">
				<title>工作表.354</title>
				<path d="M0 109.39 L20.98 109.39" class="st24"/>
			</g>
		</g>
		<g id="group355-290" transform="translate(100.549,-12.9219)" v:mID="355" v:groupContext="group">
			<title>CAP1.355</title>
			<g id="shape356-291" v:mID="356" v:groupContext="shape" transform="translate(0,-12.6142)">
				<title>工作表.356</title>
				<path d="M0 109.39 L11.34 109.39" class="st24"/>
			</g>
			<g id="shape357-294" v:mID="357" v:groupContext="shape" transform="translate(0,-8.3622)">
				<title>工作表.357</title>
				<path d="M0 109.39 L11.34 109.39" class="st24"/>
			</g>
			<g id="shape358-297" v:mID="358" v:groupContext="shape" transform="translate(115.061,88.415) rotate(90)">
				<title>工作表.358</title>
				<path d="M0 109.39 L7.65 109.39" class="st24"/>
			</g>
			<g id="shape359-300" v:mID="359" v:groupContext="shape" transform="translate(115.061,101.738) rotate(90)">
				<title>工作表.359</title>
				<path d="M0 109.39 L7.65 109.39" class="st24"/>
			</g>
		</g>
		<g id="shape360-303" v:mID="360" v:groupContext="shape" v:layerMember="0" transform="translate(99.1312,-28.9377)">
			<title>动态连接线.360</title>
			<path d="M7.09 104.43 L7.09 100.18" class="st3"/>
		</g>
		<g id="shape361-306" v:mID="361" v:groupContext="shape" v:layerMember="0" transform="translate(113.263,-18.6562)">
			<title>动态连接线.361</title>
			<path d="M-7.05 115.13 L-7.13 117.83" class="st3"/>
		</g>
		<g id="shape362-309" v:mID="362" v:groupContext="shape" transform="translate(104.718,-7.38268)">
			<title>自动联接.362</title>
			<v:userDefs>
				<v:ud v:nameU="visVersion" v:val="VT0(15):26"/>
				<v:ud v:nameU="visDisableIncLayout" v:prompt="" v:val="VT0(1):26"/>
				<v:ud v:nameU="visIsJunction" v:prompt="" v:val="VT0(1):26"/>
			</v:userDefs>
			<path d="M0 107.97 A1.41732 1.41732 0 0 1 2.83 107.97 A1.41732 1.41732 0 1 1 0 107.97 Z" class="st4"/>
		</g>
		<g id="shape363-311" v:mID="363" v:groupContext="shape" v:layerMember="0" transform="translate(104.718,-1.71339)">
			<title>动态连接线.363</title>
			<path d="M0 102.3 L-45.46 102.3" class="st3"/>
		</g>
		<g id="shape364-314" v:mID="364" v:groupContext="shape" transform="translate(104.801,-38.1503)">
			<title>自动联接.364</title>
			<v:userDefs>
				<v:ud v:nameU="visVersion" v:val="VT0(15):26"/>
				<v:ud v:nameU="visDisableIncLayout" v:prompt="" v:val="VT0(1):26"/>
				<v:ud v:nameU="visIsJunction" v:prompt="" v:val="VT0(1):26"/>
			</v:userDefs>
			<path d="M0 107.97 A1.41732 1.41732 0 0 1 2.83 107.97 A1.41732 1.41732 0 1 1 0 107.97 Z" class="st4"/>
		</g>
		<g id="shape365-316" v:mID="365" v:groupContext="shape" v:layerMember="0" transform="translate(107.749,-32.481)">
			<title>动态连接线.365</title>
			<path d="M-2.95 102.3 L-11.23 102.3" class="st3"/>
		</g>
		<g id="shape373-319" v:mID="373" v:groupContext="shape" transform="translate(132.999,-26.3707)">
			<title>工作表.373</title>
			<desc>差模源是直流源 输入差模可忽略</desc>
			<v:textBlock v:margins="rect(0,0,0,0)" v:tabSpace="42.5197" v:verticalAlign="0"/>
			<v:textRect cx="24.7736" cy="106.1" width="49.55" height="6.58268"/>
			<rect x="0" y="102.809" width="49.5472" height="6.58268" class="st5"/>
			<text x="3.69" y="108.75" class="st18" v:langID="2052"><v:paragraph v:horizAlign="1"/><v:tabList/>差模源是直流源<v:newlineChar/><tspan
						x="3.69" dy="1.321em" class="st26">输入差模可忽略</tspan></text>		</g>
		<g id="shape374-323" v:mID="374" v:groupContext="shape" v:layerMember="0" transform="translate(162.586,-75.0441)">
			<title>动态连接线.374</title>
			<path d="M-6.84 112.14 L-7.33 120.82" class="st3"/>
		</g>
		<g id="shape375-326" v:mID="375" v:groupContext="shape" transform="translate(153.84,-60.7842)">
			<title>自动联接.375</title>
			<v:userDefs>
				<v:ud v:nameU="visVersion" v:val="VT0(15):26"/>
				<v:ud v:nameU="visDisableIncLayout" v:prompt="" v:val="VT0(1):26"/>
				<v:ud v:nameU="visIsJunction" v:prompt="" v:val="VT0(1):26"/>
			</v:userDefs>
			<path d="M0 107.97 A1.41732 1.41732 0 0 1 2.83 107.97 A1.41732 1.41732 0 1 1 0 107.97 Z" class="st4"/>
		</g>
		<g id="shape376-328" v:mID="376" v:groupContext="shape" v:layerMember="0" transform="translate(157.33,-55.115)">
			<title>动态连接线.376</title>
			<path d="M-3.49 102.3 L-10.68 102.3" class="st3"/>
		</g>
		<g id="group377-331" transform="translate(103.846,-92.9055)" v:mID="377" v:groupContext="group">
			<title>Inductor2.282</title>
			<g id="shape378-332" v:mID="378" v:groupContext="shape" transform="translate(9.75119,215.325) rotate(180)">
				<title>工作表.378</title>
				<path d="M0 105.93 A3.45827 2.4378 -90 1 0 4.88 105.93" class="st1"/>
			</g>
			<g id="shape379-335" v:mID="379" v:groupContext="shape">
				<title>工作表.379</title>
				<path d="M0 109.39 L4.88 109.39" class="st1"/>
			</g>
			<g id="shape380-338" v:mID="380" v:groupContext="shape" transform="translate(14.6268,215.325) rotate(180)">
				<title>工作表.380</title>
				<path d="M0 105.93 A3.45827 2.4378 -90 1 0 4.88 105.93" class="st1"/>
			</g>
			<g id="shape381-341" v:mID="381" v:groupContext="shape" transform="translate(19.5024,215.325) rotate(180)">
				<title>工作表.381</title>
				<path d="M0 105.93 A3.45827 2.4378 -90 1 0 4.88 105.93" class="st1"/>
			</g>
			<g id="shape382-344" v:mID="382" v:groupContext="shape" transform="translate(19.5024,-3.41061E-13)">
				<title>工作表.382</title>
				<path d="M0 109.39 L4.88 109.39" class="st1"/>
			</g>
		</g>
		<g id="shape383-347" v:mID="383" v:groupContext="shape" v:layerMember="0" transform="translate(109.355,-85.8275)">
			<title>动态连接线.383</title>
			<path d="M-5.51 102.31 L-8.66 102.3" class="st3"/>
		</g>
		<g id="group566-350" transform="translate(3.03675,-53.7408)" v:mID="566" v:groupContext="group">
			<title>工作表.566</title>
			<g id="group253-351" transform="translate(1.86023,-1.37008)" v:mID="253" v:groupContext="group">
				<title>工作表.253</title>
				<g id="shape254-352" v:mID="254" v:groupContext="shape" transform="translate(173.702,74.8787) rotate(90)">
					<title>工作表.254</title>
					<path d="M0 109.39 L34.51 109.39" class="st27"/>
				</g>
				<g id="shape255-355" v:mID="255" v:groupContext="shape" transform="translate(15.9238,-33.9719)">
					<title>工作表.255</title>
					<path d="M0 109.39 L30.25 109.39" class="st28"/>
				</g>
				<g id="shape256-358" v:mID="256" v:groupContext="shape" transform="translate(-98.5062,84.79) rotate(-77.0034)">
					<title>工作表.256</title>
					<path d="M0 109.39 L34.87 109.39" class="st28"/>
				</g>
				<g id="shape257-361" v:mID="257" v:groupContext="shape" transform="translate(-32.1831,160.922) rotate(-118.103)">
					<title>工作表.257</title>
					<path d="M0 109.39 L38.51 109.39" class="st28"/>
				</g>
				<g id="shape258-364" v:mID="258" v:groupContext="shape" transform="translate(46.7157,-33.9742)">
					<title>工作表.258</title>
					<path d="M3.47 109.39 L3.83 109.39 L13.5 109.39" class="st29"/>
				</g>
				<g id="shape259-373" v:mID="259" v:groupContext="shape" transform="translate(3.60711,-33.0922)">
					<title>工作表.259</title>
					<desc>tr</desc>
					<v:textBlock v:margins="rect(4,4,4,4)" v:tabSpace="42.5197"/>
					<v:textRect cx="8.35778" cy="105.087" width="16.72" height="8.60888"/>
					<rect x="0" y="100.783" width="16.7156" height="8.60888" class="st5"/>
					<text x="6.77" y="107.12" class="st6" v:langID="2052"><v:paragraph v:horizAlign="1"/><v:tabList/>t<tspan
								dy="-0.279em" class="st7" v:baseFontSize="6">r</tspan></text>				</g>
				<g id="shape260-377" v:mID="260" v:groupContext="shape" transform="translate(46.7157,-38.0811)">
					<title>工作表.260</title>
					<desc>tf</desc>
					<v:textBlock v:margins="rect(4,4,4,4)" v:tabSpace="42.5197"/>
					<v:textRect cx="8.35778" cy="105.087" width="16.72" height="8.60888"/>
					<rect x="0" y="100.783" width="16.7156" height="8.60888" class="st5"/>
					<text x="6.87" y="107.12" class="st6" v:langID="2052"><v:paragraph v:horizAlign="1"/><v:tabList/>t<tspan
								dy="-0.279em" class="st7" v:baseFontSize="6">f</tspan></text>				</g>
				<g id="shape261-381" v:mID="261" v:groupContext="shape" transform="translate(117.488,64.8865) rotate(90)">
					<title>工作表.261</title>
					<path d="M0 109.39 L44.45 109.39" class="st27"/>
				</g>
				<g id="shape262-384" v:mID="262" v:groupContext="shape" transform="translate(8.09666,-41.701)">
					<title>工作表.262</title>
					<path d="M0 109.39 L7.83 109.39" class="st1"/>
				</g>
				<g id="shape263-387" v:mID="263" v:groupContext="shape" transform="translate(125.315,64.6502) rotate(90)">
					<title>工作表.263</title>
					<path d="M0 109.39 L10.77 109.39" class="st27"/>
				</g>
				<g id="shape264-390" v:mID="264" v:groupContext="shape" transform="translate(15.9238,-41.701)">
					<title>工作表.264</title>
					<path d="M3.47 109.39 L3.83 109.39 L8.7 109.39" class="st30"/>
				</g>
				<g id="shape265-395" v:mID="265" v:groupContext="shape" transform="translate(8.09666,177.082) rotate(180)">
					<title>工作表.265</title>
					<path d="M3.47 109.39 L3.83 109.39 L8.1 109.39" class="st30"/>
				</g>
			</g>
			<g id="shape266-400" v:mID="266" v:groupContext="shape">
				<title>工作表.266</title>
				<rect x="0" y="58.3678" width="70.8661" height="51.0236" class="st10"/>
			</g>
			<g id="shape267-402" v:mID="267" v:groupContext="shape" transform="translate(29.5423,-14.6771)">
				<title>工作表.267</title>
				<desc>V</desc>
				<v:textBlock v:margins="rect(0,0,0,0)" v:tabSpace="42.5197" v:verticalAlign="0"/>
				<v:textRect cx="3.54331" cy="106.1" width="7.09" height="6.58268"/>
				<rect x="0" y="102.809" width="7.08661" height="6.58268" class="st5"/>
				<text x="1.54" y="108.21" class="st6" v:langID="2052"><v:paragraph v:horizAlign="1"/><v:tabList/>V</text>			</g>
			<g id="shape268-405" v:mID="268" v:groupContext="shape" transform="translate(147.659,74.0494) rotate(90)">
				<title>工作表.268</title>
				<path d="M3.47 109.39 L3.83 109.39 L28.67 109.39" class="st29"/>
			</g>
		</g>
		<g id="shape851-412" v:mID="851" v:groupContext="shape" transform="translate(62.3753,-20.1187)">
			<title>工作表.851</title>
			<desc>VCM</desc>
			<v:textBlock v:margins="rect(0,0,0,0)" v:tabSpace="42.5197" v:verticalAlign="0"/>
			<v:textRect cx="7.32283" cy="106.1" width="14.65" height="6.58268"/>
			<rect x="0" y="102.809" width="14.6457" height="6.58268" class="st5"/>
			<text x="2.29" y="108.21" class="st31" v:langID="2052"><v:paragraph v:horizAlign="1"/><v:tabList/>V<tspan dy="-0.279em"
						class="st7" v:baseFontSize="6">CM</tspan></text>		</g>
	</g>
</svg>
